<?xml version="1.0" encoding="utf-8"?>
<!-- Generator: Adobe Illustrator 25.4.1, SVG Export Plug-In . SVG Version: 6.00 Build 0)  -->
<svg version="1.1" id="Layer_1" xmlns="http://www.w3.org/2000/svg" xmlns:xlink="http://www.w3.org/1999/xlink" x="0px" y="0px"
	 viewBox="0 0 1080 1080" style="enable-background:new 0 0 1080 1080;" xml:space="preserve">
<style type="text/css">
	.st0{fill:#FFFFFF;}
	.st1{fill:#9D66AB;}
	.st2{fill:url(#SVGID_1_);}
	.st3{fill:url(#SVGID_00000028312458462382647610000002287923584632556933_);}
	.st4{fill:#3F366B;}
</style>
<path class="st0" d="M783.04,936.12H288.52c-85.11,0-154.11-69-154.11-154.11V287.49c0-85.11,69-154.11,154.11-154.11h494.52
	c85.11,0,154.11,69,154.11,154.11v494.52C937.15,867.13,868.15,936.12,783.04,936.12z"/>
<g>
	<g>
		<circle class="st1" cx="208.4" cy="590.87" r="17.16"/>
		
			<linearGradient id="SVGID_1_" gradientUnits="userSpaceOnUse" x1="137.9379" y1="651.2016" x2="108.8351" y2="578.2371" gradientTransform="matrix(0.9896 -0.1436 0.1436 0.9896 31.9283 -14.2507)">
			<stop  offset="0" style="stop-color:#B272B0"/>
			<stop  offset="1" style="stop-color:#5D4B9E"/>
		</linearGradient>
		<path class="st2" d="M226.52,540.14c0,0,48.78,12.81,39.31,68.01l-28.49,0.46c0,0,13.12-29.36-20.19-46.95L226.52,540.14z"/>
		<circle class="st1" cx="243.01" cy="511.91" r="17.16"/>
		
			<linearGradient id="SVGID_00000041277447980273621740000004580857670353051569_" gradientUnits="userSpaceOnUse" x1="84.9073" y1="512.676" x2="108.6395" y2="572.1758" gradientTransform="matrix(0.9896 -0.1436 0.1436 0.9896 31.9283 -14.2507)">
			<stop  offset="0" style="stop-color:#B272B0"/>
			<stop  offset="1" style="stop-color:#5D4B9E"/>
		</linearGradient>
		<path style="fill:url(#SVGID_00000041277447980273621740000004580857670353051569_);" d="M211.22,468.42
			c0,0-43.13,26.14-18.36,76.38l27.44-7.65c0,0-20.93-24.42,6.01-50.75L211.22,468.42z"/>
	</g>
	<g>
		<path class="st4" d="M366.98,551.15c-3.25-1.23-7.4-2.43-12.46-3.62c-4.67-1.03-8.09-2.06-10.27-3.09
			c-2.18-1.03-3.26-2.57-3.26-4.63c0-1.82,0.59-3.22,1.78-4.21c1.19-0.99,2.93-1.48,5.22-1.48c2.93,0,5.36,0.77,7.3,2.31
			c1.94,1.54,3.18,3.66,3.74,6.35h18.99c-1.27-6.88-4.41-12.42-9.43-16.61c-5.02-4.19-11.73-6.29-20.11-6.29
			c-8.23,0-14.6,1.84-19.11,5.52c-4.51,3.68-6.76,8.49-6.76,14.42c0,4.59,1.15,8.21,3.44,10.86c2.29,2.65,5.02,4.57,8.19,5.75
			c3.16,1.19,7.2,2.3,12.1,3.32c4.9,1.11,8.44,2.16,10.62,3.14c2.17,0.99,3.26,2.63,3.26,4.92c0,1.74-0.59,3.14-1.78,4.21
			s-2.93,1.6-5.22,1.6c-3.32,0-6.03-0.75-8.13-2.25c-2.1-1.5-3.3-3.68-3.62-6.53h-19.58c1.19,7.36,4.47,13.01,9.85,16.97
			c5.38,3.96,12.54,5.93,21.48,5.93c5.3,0,9.89-0.83,13.77-2.49c3.88-1.66,6.84-3.96,8.9-6.88c2.06-2.93,3.09-6.29,3.09-10.09
			c0-4.67-1.19-8.38-3.56-11.15C373.03,554.37,370.22,552.37,366.98,551.15z"/>
		<path class="st4" d="M438.83,523.97c-5.18-2.73-11.06-4.09-17.62-4.09c-6.57,0-12.46,1.36-17.68,4.09
			c-5.22,2.73-9.32,6.67-12.28,11.81c-2.97,5.14-4.45,11.16-4.45,18.04s1.48,12.9,4.45,18.04c2.97,5.14,7.06,9.08,12.28,11.81
			c5.22,2.73,11.11,4.09,17.68,4.09c6.57,0,12.44-1.36,17.62-4.09c5.18-2.73,9.26-6.66,12.22-11.81c2.97-5.14,4.45-11.16,4.45-18.04
			s-1.48-12.89-4.45-18.04C448.09,530.64,444.01,526.7,438.83,523.97z M430.94,565.92c-2.61,2.77-5.86,4.15-9.73,4.15
			c-3.88,0-7.14-1.38-9.79-4.15c-2.65-2.77-3.98-6.8-3.98-12.1c0-5.3,1.32-9.35,3.98-12.16c2.65-2.81,5.91-4.21,9.79-4.21
			c3.88,0,7.12,1.41,9.73,4.21c2.61,2.81,3.92,6.86,3.92,12.16C434.86,559.12,433.55,563.15,430.94,565.92z"/>
		<path class="st4" d="M495.5,537.32c3.01,0,5.5,0.79,7.48,2.37c1.98,1.58,3.28,3.8,3.92,6.65h21.48
			c-1.5-8.23-5.14-14.69-10.92-19.4c-5.78-4.71-12.94-7.06-21.48-7.06c-6.49,0-12.26,1.36-17.33,4.09c-5.06,2.73-9,6.65-11.81,11.75
			c-2.81,5.1-4.21,11.14-4.21,18.1c0,6.88,1.42,12.9,4.27,18.04c2.85,5.14,6.78,9.08,11.81,11.81c5.02,2.73,10.78,4.09,17.27,4.09
			c8.54,0,15.7-2.35,21.48-7.06c5.77-4.71,9.41-11.17,10.92-19.4h-21.48c-0.63,2.85-1.94,5.06-3.92,6.65
			c-1.98,1.58-4.47,2.37-7.48,2.37c-3.56,0-6.49-1.4-8.78-4.21c-2.3-2.81-3.44-6.9-3.44-12.28c0-5.38,1.15-9.47,3.44-12.28
			C489.01,538.73,491.94,537.32,495.5,537.32z"/>
		<path class="st4" d="M549.14,491.4c-3.64,0-6.57,1.01-8.78,3.03c-2.22,2.02-3.32,4.57-3.32,7.65c0,3.01,1.11,5.52,3.32,7.54
			c2.21,2.02,5.14,3.03,8.78,3.03c3.64,0,6.57-1.01,8.78-3.03c2.21-2.02,3.32-4.53,3.32-7.54c0-3.09-1.11-5.64-3.32-7.65
			C555.7,492.4,552.78,491.4,549.14,491.4z"/>
		<rect x="538.93" y="520.71" class="st4" width="20.29" height="66.22"/>
		<path class="st4" d="M619.51,532.69c-1.74-3.96-4.43-7.08-8.07-9.38c-3.64-2.29-7.99-3.44-13.05-3.44
			c-5.46,0-10.34,1.36-14.66,4.09c-4.31,2.73-7.71,6.65-10.21,11.75c-2.49,5.1-3.74,11.14-3.74,18.1c0,6.88,1.25,12.9,3.74,18.04
			c2.49,5.14,5.89,9.08,10.21,11.81c4.31,2.73,9.2,4.09,14.66,4.09c5.06,0,9.41-1.15,13.05-3.44c3.64-2.29,6.33-5.42,8.07-9.38
			v11.99h20.17v-66.22h-20.17V532.69z M615.41,565.56c-2.73,2.93-6.23,4.39-10.5,4.39c-4.35,0-7.85-1.42-10.5-4.27
			c-2.65-2.85-3.98-6.8-3.98-11.87c0-5.06,1.32-9.02,3.98-11.87c2.65-2.85,6.15-4.27,10.5-4.27c4.27,0,7.77,1.45,10.5,4.33
			c2.73,2.89,4.09,6.82,4.09,11.81C619.51,558.72,618.14,562.64,615.41,565.56z"/>
		<rect x="653.68" y="499.11" class="st4" width="20.29" height="87.82"/>
		<polygon class="st4" points="719.19,561.29 703.29,520.71 680.62,520.71 708.39,584.43 692.84,618.49 715.15,618.49 
			756.45,520.71 734.02,520.71 		"/>
		<polygon class="st4" points="810.56,536.73 810.56,520.71 759.42,520.71 759.42,537.56 787.42,537.56 758.94,570.9 758.94,586.93 
			811.75,586.93 811.75,569.96 781.13,569.96 		"/>
		<path class="st4" d="M884.26,552.04c0-6.33-1.37-11.93-4.09-16.79c-2.73-4.87-6.59-8.64-11.57-11.33
			c-4.98-2.69-10.76-4.03-17.33-4.03c-6.49,0-12.26,1.36-17.33,4.09c-5.06,2.73-9,6.65-11.81,11.75c-2.81,5.1-4.21,11.14-4.21,18.1
			c0,6.88,1.42,12.9,4.27,18.04c2.85,5.14,6.78,9.08,11.81,11.81c5.02,2.73,10.78,4.09,17.27,4.09c5.54,0,10.56-1.05,15.07-3.14
			c4.51-2.09,8.23-4.98,11.16-8.66c2.93-3.68,4.82-7.85,5.7-12.52h-21.48c-0.63,2.37-1.94,4.31-3.92,5.81
			c-1.98,1.5-4.47,2.25-7.48,2.25c-3.56,0-6.49-1.09-8.78-3.26c-2.3-2.18-3.56-5.76-3.8-10.74h45.93
			C884.06,555.52,884.26,553.7,884.26,552.04z M837.86,548.95c0.31-4.27,1.7-7.52,4.15-9.73c2.45-2.21,5.54-3.32,9.26-3.32
			c3.56,0,6.55,1.09,8.96,3.26c2.41,2.18,3.58,5.44,3.5,9.79H837.86z"/>
	</g>
</g>
</svg>
